<svg width="24" height="24" viewBox="0 0 24 24" fill="none" xmlns="http://www.w3.org/2000/svg">
<path d="M21.4399 16.84C21.6999 16.58 21.8199 16.23 21.7899 15.89L21.0699 7.7C21.0199 7.04 20.4799 6.53 19.8199 6.53L12.4199 6.5C12.0499 6.5 11.7199 6.23 11.5999 5.88L11.0199 4.13C10.8999 3.78 10.5699 3.5 10.1999 3.5L3.49995 3.5C2.94995 3.5 2.49995 3.95 2.49995 4.5L2.50995 17.5C2.50995 18.05 2.95995 18.5 3.50995 18.5L19.4999 18.5C19.9899 18.5 20.4199 18.18 20.5999 17.75L21.4399 16.84Z" fill="#2196F3"/>
</svg>
